<svg width="190" height="35" fill="none" xmlns="http://www.w3.org/2000/svg"><path d="M55.28 20.52v.912c.016.256.04.528.072.816l1.656.24v.84a4.75 4.75 0 01-.792.288c-.32.096-.664.192-1.032.288-.352.08-.704.144-1.056.192-.352.064-.664.112-.936.144h-.816a3.525 3.525 0 01-.288-1.104 24.422 24.422 0 01-.072-1.344h-.12c-.08.32-.216.632-.408.936-.192.288-.44.552-.744.792a3.718 3.718 0 01-1.032.552c-.4.144-.848.216-1.344.216-.528 0-1.016-.08-1.464-.24a3.698 3.698 0 01-1.176-.672 3.126 3.126 0 01-.792-1.032 3.283 3.283 0 01-.288-1.392c0-.72.136-1.312.408-1.776.272-.464.696-.84 1.272-1.128.592-.304 1.344-.528 2.256-.672.928-.144 2.048-.248 3.36-.312.128-1.376.072-2.384-.168-3.024-.24-.64-.76-.96-1.56-.96-.496 0-.952.08-1.368.24L47.72 16.2h-1.056a7.72 7.72 0 01-.384-.648c-.112-.256-.224-.52-.336-.792a17.783 17.783 0 01-.264-.864 8.399 8.399 0 01-.144-.84c.608-.416 1.392-.744 2.352-.984s1.976-.36 3.048-.36c.912 0 1.656.104 2.232.312.576.192 1.024.464 1.344.816.336.336.568.736.696 1.2.128.464.192.96.192 1.488 0 .96-.024 1.832-.072 2.616-.032.768-.048 1.56-.048 2.376zm-5.4 1.848c.336 0 .624-.064.864-.192a2.2 2.2 0 00.6-.456c.176-.176.304-.368.384-.576.096-.208.168-.392.216-.552v-2.4c-.752.016-1.368.064-1.848.144-.48.08-.856.216-1.128.408a1.434 1.434 0 00-.576.696c-.096.272-.144.608-.144 1.008 0 .608.144 1.08.432 1.416.288.336.688.504 1.2.504zM64.487 28.8h-6.624v-.936a8.67 8.67 0 011.584-.576V13.704l-1.584-.192v-.936c.256-.112.568-.216.936-.312.384-.096.776-.176 1.176-.24.4-.08.784-.144 1.152-.192l.96-.12h.816V14.4h.024a4.551 4.551 0 011.272-1.92c.592-.512 1.408-.768 2.448-.768.704 0 1.336.12 1.896.36a3.308 3.308 0 011.44 1.08c.4.48.704 1.104.912 1.872.224.752.336 1.656.336 2.712 0 1.008-.144 1.92-.432 2.736-.272.816-.672 1.504-1.2 2.064a5.133 5.133 0 01-1.896 1.296c-.736.304-1.576.456-2.52.456-.544 0-.976-.04-1.296-.12a4.128 4.128 0 01-.984-.36v3.48c.256.032.512.088.768.168.256.096.528.232.816.408v.936zm.768-15.168c-.544 0-1.032.192-1.464.576-.416.384-.712.976-.888 1.776v6.384c.256.192.528.336.816.432.288.08.664.12 1.128.12.912 0 1.584-.44 2.016-1.32.432-.88.648-2.168.648-3.864 0-1.312-.168-2.32-.504-3.024-.32-.72-.904-1.08-1.752-1.08zM79.112 28.8h-6.624v-.936a8.67 8.67 0 011.584-.576V13.704l-1.584-.192v-.936c.256-.112.568-.216.936-.312.384-.096.776-.176 1.176-.24.4-.08.784-.144 1.152-.192l.96-.12h.816V14.4h.024a4.551 4.551 0 011.272-1.92c.592-.512 1.408-.768 2.448-.768.704 0 1.336.12 1.896.36a3.308 3.308 0 011.44 1.08c.4.48.704 1.104.912 1.872.224.752.336 1.656.336 2.712 0 1.008-.144 1.92-.432 2.736-.272.816-.672 1.504-1.2 2.064a5.133 5.133 0 01-1.896 1.296c-.736.304-1.576.456-2.52.456-.544 0-.976-.04-1.296-.12a4.128 4.128 0 01-.984-.36v3.48c.256.032.512.088.768.168.256.096.528.232.816.408v.936zm.768-15.168c-.544 0-1.032.192-1.464.576-.416.384-.712.976-.888 1.776v6.384c.256.192.528.336.816.432.288.08.664.12 1.128.12.912 0 1.584-.44 2.016-1.32.432-.88.648-2.168.648-3.864 0-1.312-.168-2.32-.504-3.024-.32-.72-.904-1.08-1.752-1.08zm8.241 8.664c0-.576.184-1.04.552-1.392.368-.352.856-.528 1.464-.528s1.104.176 1.488.528c.384.352.576.816.576 1.392s-.192 1.04-.576 1.392c-.384.336-.88.504-1.488.504s-1.096-.168-1.464-.504c-.368-.352-.552-.816-.552-1.392zm16.534-.24c-.112.32-.296.616-.552.888a4.318 4.318 0 01-.936.696 4.44 4.44 0 01-1.224.48c-.448.112-.92.168-1.416.168-1.056 0-1.968-.144-2.736-.432-.752-.304-1.376-.728-1.872-1.272a5.383 5.383 0 01-1.104-1.992c-.24-.784-.36-1.648-.36-2.592 0-2.032.552-3.584 1.656-4.656 1.12-1.088 2.704-1.632 4.752-1.632.784 0 1.504.088 2.16.264.656.16 1.2.352 1.632.576-.032.272-.08.576-.144.912-.048.32-.112.648-.192.984-.064.32-.144.64-.24.96-.096.304-.192.56-.288.768h-1.176l-1.008-2.856a1.056 1.056 0 00-.36-.168c-.128-.048-.32-.072-.576-.072-.416 0-.776.08-1.08.24-.304.144-.568.4-.792.768-.208.368-.368.856-.48 1.464-.096.608-.144 1.36-.144 2.256 0 .656.072 1.264.216 1.824.144.544.36 1.024.648 1.44.304.4.68.72 1.128.96.448.224.976.336 1.584.336.56 0 1.048-.08 1.464-.24.416-.16.768-.352 1.056-.576l.384.504zm7.641-7.296a3.363 3.363 0 00-.672.48c-.256.224-.488.592-.696 1.104v6.144c.32.032.64.096.96.192.32.08.64.208.96.384V24h-6.96v-.936c.288-.16.56-.28.816-.36.256-.08.512-.152.768-.216v-8.784l-1.584-.192v-.936c.256-.112.568-.216.936-.312.384-.096.776-.176 1.176-.24.4-.08.784-.144 1.152-.192l.96-.12h.816v3.192h.096c.128-.352.312-.72.552-1.104.256-.384.552-.736.888-1.056.336-.32.704-.576 1.104-.768.4-.192.816-.28 1.248-.264.176.224.328.544.456.96.128.4.232.784.312 1.152v.936h-3.288zm15.04 7.224c-.128.272-.336.552-.624.84-.272.272-.616.52-1.032.744-.4.208-.872.376-1.416.504a6.552 6.552 0 01-1.728.216c-.992 0-1.872-.144-2.64-.432-.768-.304-1.408-.728-1.92-1.272a5.766 5.766 0 01-1.176-1.992c-.256-.768-.384-1.632-.384-2.592 0-2.048.536-3.608 1.608-4.68 1.072-1.072 2.56-1.608 4.464-1.608a7.48 7.48 0 012.28.336c.72.224 1.312.592 1.776 1.104.48.512.808 1.184.984 2.016.192.832.184 1.848-.024 3.048h-7.368c.016 1.264.336 2.272.96 3.024.64.752 1.576 1.128 2.808 1.128.528 0 1.072-.08 1.632-.24.576-.16 1.024-.368 1.344-.624l.456.48zm-4.944-8.904c-.32 0-.608.056-.864.168-.24.112-.456.32-.648.624-.176.288-.32.688-.432 1.2-.112.496-.192 1.128-.24 1.896h3.864c.112-1.248.04-2.208-.216-2.88-.256-.672-.744-1.008-1.464-1.008zm17.451 7.44v.912c.016.256.04.528.072.816l1.656.24v.84a4.75 4.75 0 01-.792.288c-.32.096-.664.192-1.032.288-.352.08-.704.144-1.056.192-.352.064-.664.112-.936.144h-.816a3.525 3.525 0 01-.288-1.104 24.422 24.422 0 01-.072-1.344h-.12c-.08.32-.216.632-.408.936-.192.288-.44.552-.744.792a3.718 3.718 0 01-1.032.552c-.4.144-.848.216-1.344.216-.528 0-1.016-.08-1.464-.24a3.698 3.698 0 01-1.176-.672 3.126 3.126 0 01-.792-1.032 3.283 3.283 0 01-.288-1.392c0-.72.136-1.312.408-1.776.272-.464.696-.84 1.272-1.128.592-.304 1.344-.528 2.256-.672.928-.144 2.048-.248 3.36-.312.128-1.376.072-2.384-.168-3.024-.24-.64-.76-.96-1.56-.96-.496 0-.952.08-1.368.24l-1.128 2.88h-1.056a7.72 7.72 0 01-.384-.648c-.112-.256-.224-.52-.336-.792a17.783 17.783 0 01-.264-.864 8.121 8.121 0 01-.144-.84c.608-.416 1.392-.744 2.352-.984s1.976-.36 3.048-.36c.912 0 1.656.104 2.232.312.576.192 1.024.464 1.344.816.336.336.568.736.696 1.2.128.464.192.96.192 1.488 0 .96-.024 1.832-.072 2.616-.032.768-.048 1.56-.048 2.376zm-5.4 1.848c.336 0 .624-.064.864-.192a2.2 2.2 0 00.6-.456c.176-.176.304-.368.384-.576.096-.208.168-.392.216-.552v-2.4c-.752.016-1.368.064-1.848.144-.48.08-.856.216-1.128.408a1.434 1.434 0 00-.576.696c-.096.272-.144.608-.144 1.008 0 .608.144 1.08.432 1.416.288.336.688.504 1.2.504zm7.671-9.792a6.318 6.318 0 011.92-.816V9.816c.128-.096.44-.232.936-.408a9.77 9.77 0 011.704-.456h.816V12h3.168v1.512h-3.168v6.216c0 .992.12 1.68.36 2.064.256.384.672.576 1.248.576.288 0 .608-.016.96-.048a4.652 4.652 0 001.008-.24l.168.792c-.144.144-.36.296-.648.456-.272.16-.592.312-.96.456a7.276 7.276 0 01-1.176.36 5.856 5.856 0 01-1.32.144c-1.04 0-1.816-.272-2.328-.816-.512-.544-.768-1.424-.768-2.64v-7.32h-1.92v-.936zM158.876 24h-6.624v-.936a4.31 4.31 0 01.744-.312 8.71 8.71 0 01.84-.264v-8.784l-1.584-.192v-.936c.24-.096.536-.192.888-.288.368-.096.752-.176 1.152-.24.4-.08.792-.144 1.176-.192.384-.064.72-.112 1.008-.144h.816v10.776c.32.08.608.168.864.264.256.08.496.184.72.312V24zm-5.448-15.936c0-.56.192-1 .576-1.32.384-.32.88-.48 1.488-.48s1.104.16 1.488.48c.384.32.576.76.576 1.32 0 .544-.192.976-.576 1.296-.384.32-.88.48-1.488.48s-1.104-.16-1.488-.48c-.384-.32-.576-.752-.576-1.296zM160.221 18c0-.976.144-1.848.432-2.616a5.677 5.677 0 011.272-1.992 5.645 5.645 0 012.016-1.248c.784-.288 1.672-.432 2.664-.432 1.12 0 2.08.16 2.88.48.816.304 1.48.736 1.992 1.296.528.544.912 1.208 1.152 1.992.24.768.36 1.608.36 2.52 0 .976-.144 1.856-.432 2.64a5.294 5.294 0 01-1.272 1.968c-.544.544-1.216.96-2.016 1.248-.784.288-1.672.432-2.664.432-1.088 0-2.032-.152-2.832-.456-.8-.32-1.464-.752-1.992-1.296a5.31 5.31 0 01-1.176-1.992 8.15 8.15 0 01-.384-2.544zm3.72 0c0 .72.04 1.384.12 1.992.096.592.256 1.096.48 1.512.224.416.528.744.912.984.384.224.88.336 1.488.336.352 0 .672-.08.96-.24.288-.176.536-.448.744-.816.208-.384.36-.88.456-1.488.112-.624.168-1.384.168-2.28 0-.736-.048-1.4-.144-1.992-.08-.592-.232-1.096-.456-1.512a2.293 2.293 0 00-.864-.96c-.368-.24-.832-.36-1.392-.36-.416 0-.776.088-1.08.264-.304.16-.56.432-.768.816-.208.368-.368.864-.48 1.488-.096.608-.144 1.36-.144 2.256zm24.954 6h-6.36v-.936c.208-.112.408-.208.6-.288a8.41 8.41 0 01.72-.288v-5.64c0-1.008-.144-1.792-.432-2.352-.288-.576-.8-.864-1.536-.864-.608 0-1.136.2-1.584.6-.432.384-.76.912-.984 1.584v6.672c.256.064.48.144.672.24.208.08.424.192.648.336V24h-6.36v-.936c.4-.208.928-.4 1.584-.576v-8.784l-1.584-.192v-.936c.208-.096.48-.184.816-.264.336-.096.696-.184 1.08-.264.4-.08.8-.144 1.2-.192.416-.064.792-.112 1.128-.144h.816v2.472h.024c.336-.672.84-1.248 1.512-1.728.672-.496 1.488-.744 2.448-.744.624 0 1.184.08 1.68.24a2.58 2.58 0 011.248.792c.352.384.616.904.792 1.56.192.64.288 1.456.288 2.448v5.736c.64.112 1.168.304 1.584.576V24z" fill="#000"/><circle opacity=".7" cx="14" cy="14" r="14" fill="#0056EC"/><circle opacity=".7" cx="22" cy="21" r="14" fill="#C8DBFB"/></svg>